<svg width="839" height="754" viewBox="0 0 839 754" fill="none" xmlns="http://www.w3.org/2000/svg">
<path d="M38.025 486.622C85.1651 435.355 133.25 386.069 181 339.893C169.84 331.48 158.375 323.22 146.301 315.235C102.088 286.188 73.3648 239.31 69.6143 189.902C67.0225 156.192 75.743 123.975 94.9527 96.8478C123.066 56.7366 171.243 32.8406 223.841 32.8406C259.089 32.9015 293.514 43.2951 323.274 62.924C355.778 84.1988 387.063 107.303 418.652 133.21C513.695 59.7543 573.184 25.0074 579.831 21.167C603.767 7.32923 631.972 0.0444336 661.305 0.0444336C719.361 0.105393 776.015 29.3049 809.281 76.2436C835.29 113.063 844.803 157.807 835.534 199.107C826.813 237.938 802.603 270.552 767.385 290.942C766.866 291.217 720.184 318.953 643.955 377.931C704.145 464.432 734.454 531.061 740.095 544.015C757.597 584.156 757.994 627.103 741.04 665.019C724.087 703.271 691.827 731.648 650.145 745.059C633.801 750.362 616.36 753.044 598.4 753.044H598.339C527.05 752.922 460.547 709.763 432.83 645.665C432.769 645.543 423.134 623.932 403.315 590.527C365.993 627.407 330.561 664.166 295.527 702.509C266.346 734.299 223.445 752.496 177.707 752.496C135.263 752.435 93.916 737.286 61.0155 709.763C25.8281 680.32 3.69121 638.654 0.428602 595.434C-2.62056 554.805 10.6739 516.126 37.9335 486.561L38.025 486.622Z" fill="white"/>
</svg>
