<svg width="107" height="99" viewBox="0 0 107 99" fill="none" xmlns="http://www.w3.org/2000/svg">
<path d="M26.7789 45.3627C21.4291 50.5752 16.0417 56.1386 10.7603 61.9257L10.75 61.9188C7.69589 65.2562 6.2064 69.6223 6.54802 74.2086C6.91356 79.0874 9.39373 83.7907 13.3361 87.1143C17.0222 90.2212 21.6546 91.9312 26.41 91.938C31.5343 91.938 36.3409 89.884 39.6102 86.2955C43.5355 81.9672 47.5052 77.8178 51.6866 73.6547C53.9072 77.4256 54.9867 79.865 54.9935 79.8788C58.0989 87.1144 65.5497 91.9862 73.5368 92H73.5436C75.5558 92 77.5099 91.6972 79.341 91.0986C84.011 89.5847 87.6254 86.3815 89.5248 82.0635C91.4242 77.7834 91.3798 72.9356 89.4188 68.4044C88.7869 66.9421 91.123 59.7826 84.3794 50.0182C92.9199 43.3607 92.4183 39.8681 92.4764 39.8371C96.4221 37.5353 99.1346 33.8539 100.112 29.4706C101.15 24.8086 100.084 19.7577 97.1703 15.6015C93.4432 10.303 87.0959 7.00688 80.5914 7C77.305 7 74.145 7.82232 71.4632 9.38435C70.7185 9.81787 64.0534 13.7402 53.405 22.032C49.8658 19.1075 46.3607 16.4995 42.719 14.098C39.3848 11.8822 35.5279 10.709 31.5787 10.7021C25.6857 10.7021 20.2881 13.3995 17.1383 17.9273C14.9861 20.9895 14.0091 24.6262 14.2995 28.4315C14.7197 34.0087 17.9377 39.3004 22.8912 42.5792C24.2441 43.4807 25.5286 44.4131 26.7789 45.3627Z" fill="#FEDF00"/>
<path fill-rule="evenodd" clip-rule="evenodd" d="M80.588 13.5C78.3753 13.5006 76.3579 14.0556 74.7347 15.001L74.7332 15.0019C74.2099 15.3065 67.7908 19.0681 57.3985 27.1605L53.2843 30.3642L49.2645 27.0427C45.8905 24.2547 42.5725 21.7875 39.1406 19.5243L39.131 19.5179L39.1214 19.5116C36.8397 17.9953 34.2299 17.2079 31.5733 17.2021C27.6344 17.2037 24.3108 18.999 22.4742 21.6392L22.4652 21.6521L22.4561 21.665C21.1952 23.459 20.6016 25.5914 20.7806 27.9369L20.781 27.9432C21.0394 31.3728 23.0752 34.906 26.4789 37.1591L26.4872 37.1646L26.4955 37.1701C27.9888 38.1651 29.3852 39.1801 30.7102 40.1863L36.7207 44.7512L31.3149 50.0182C26.0575 55.1407 20.7585 60.6127 15.5613 66.3074L15.2115 66.6908C13.617 68.6221 12.8325 71.065 13.0298 73.723M80.588 13.5C84.9838 13.5059 89.345 15.7767 91.8518 19.3383C93.7837 22.0967 94.3826 25.2933 93.7673 28.0564M68.1932 3.76679C71.9323 1.58924 76.2331 0.5 80.5913 0.5H80.5982C89.2089 0.509113 97.5397 4.82894 102.487 11.8618L102.492 11.87C106.386 17.4226 107.917 24.325 106.456 30.8839C105.077 37.069 101.229 42.2565 95.7516 45.4516L95.6441 45.5143L95.5344 45.5728C95.5984 45.5387 95.5345 45.5791 95.3495 45.6964C94.5908 46.1771 91.795 47.9484 87.4259 51.1596C92.2195 58.7696 94.7584 64.3752 95.3842 65.8228C98.0162 71.9048 98.15 78.6444 95.4703 84.6903C92.7887 90.779 87.6931 95.2223 81.3513 97.2799C78.8391 98.1001 76.2041 98.5 73.5436 98.5L73.5256 98.5C63.7953 98.4832 54.6719 93.0424 50.0673 84.5968C48.1631 86.5926 46.2887 88.607 44.4251 90.662L44.4201 90.6675L44.4151 90.673C39.8384 95.6966 33.2477 98.438 26.4099 98.438L26.4005 98.438C20.0912 98.4289 13.9843 96.1616 9.14694 92.0844C3.95603 87.7082 0.570441 81.4252 0.0661333 74.6943L0.0659235 74.6915C-0.405895 68.3573 1.66498 62.2183 5.95475 57.5306L9.73037 53.4048L9.76653 53.4291C12.1001 50.9416 14.4478 48.5014 16.7982 46.1189C11.6866 41.7871 8.32262 35.6079 7.81803 28.9231C7.4174 23.6645 8.77461 18.5298 11.8109 14.2032C16.2739 7.79662 23.739 4.20209 31.5787 4.20209H31.59C36.8256 4.21122 41.9237 5.76787 46.3064 8.67759C48.7497 10.2891 51.1288 11.9847 53.4876 13.7908C62.0197 7.40657 67.3471 4.25934 68.1916 3.76768M93.7673 28.0564C93.1917 30.6376 91.6151 32.8143 89.2011 34.2226ZM89.2011 34.2226L89.2024 34.2248ZM89.2024 34.2248C87.9994 34.9339 82.6468 38.2973 74.6513 44.5301L69.8125 48.302L73.299 53.3503C79.7466 62.6861 82.9469 69.8138 83.4522 70.9831L83.4534 70.9859C84.7418 73.9631 84.6982 76.9152 83.5835 79.4269L83.5792 79.4366L83.5749 79.4463C82.4574 81.9867 80.3286 83.9454 77.3365 84.9153L77.3288 84.9178L77.321 84.9204C76.174 85.2954 74.9043 85.5 73.5439 85.5M53.0369 63.138L57.2876 70.3565C59.6611 74.3871 60.8893 77.137 60.815 76.9874L60.8953 77.1492L60.9666 77.3152C63.0294 82.1216 68.1058 85.4888 73.5439 85.5M53.0369 63.138L47.1005 69.0484ZM47.1005 69.0484C42.8468 73.2835 38.8023 77.5107 34.801 81.9227ZM34.801 81.9227C32.8398 84.0725 29.8209 85.4369 26.4142 85.438C23.2147 85.4322 20.0591 84.2798 17.5257 82.1447C14.8328 79.8745 13.2575 76.7515 13.03 73.7258" fill="#FEDF00"/>
</svg>
