<svg width="108" height="99" viewBox="0 0 108 99" fill="none" xmlns="http://www.w3.org/2000/svg">
<path d="M27.2789 45.3627C21.9291 50.5752 16.5417 56.1386 11.2603 61.9257L11.25 61.9188C8.19589 65.2562 6.7064 69.6223 7.04802 74.2086C7.41356 79.0874 9.89373 83.7907 13.8361 87.1143C17.5222 90.2212 22.1546 91.9312 26.91 91.938C32.0343 91.938 36.8409 89.884 40.1102 86.2955C44.0355 81.9672 48.0052 77.8178 52.1866 73.6547C54.4072 77.4256 55.4867 79.865 55.4935 79.8788C58.5989 87.1144 66.0497 91.9862 74.0368 92H74.0436C76.0558 92 78.0099 91.6972 79.841 91.0986C84.511 89.5847 88.1254 86.3815 90.0248 82.0635C91.9242 77.7834 91.8798 72.9356 89.9188 68.4044C89.2869 66.9421 91.623 59.7826 84.8794 50.0182C93.4199 43.3607 92.9183 39.8681 92.9764 39.8371C96.9221 37.5353 99.6346 33.8539 100.612 29.4706C101.65 24.8086 100.584 19.7577 97.6703 15.6015C93.9432 10.303 87.5959 7.00688 81.0914 7C77.805 7 74.645 7.82232 71.9632 9.38435C71.2185 9.81787 64.5534 13.7402 53.905 22.032C50.3658 19.1075 46.8607 16.4995 43.219 14.098C39.8848 11.8822 36.0279 10.709 32.0787 10.7021C26.1857 10.7021 20.7881 13.3995 17.6383 17.9273C15.4861 20.9895 14.5091 24.6262 14.7995 28.4315C15.2197 34.0087 18.4377 39.3004 23.3912 42.5792C24.7441 43.4807 26.0286 44.4131 27.2789 45.3627Z" fill="black"/>
<path fill-rule="evenodd" clip-rule="evenodd" d="M81.088 13.5C78.8753 13.5006 76.8579 14.0556 75.2347 15.001L75.2332 15.0019C74.7099 15.3065 68.2908 19.0681 57.8985 27.1605L53.7843 30.3642L49.7645 27.0427C46.3905 24.2547 43.0725 21.7875 39.6406 19.5243L39.631 19.5179L39.6214 19.5116C37.3397 17.9953 34.7299 17.2079 32.0733 17.2021C28.1344 17.2037 24.8108 18.999 22.9742 21.6392L22.9652 21.6521L22.9561 21.665C21.6952 23.459 21.1016 25.5914 21.2806 27.9369L21.281 27.9432C21.5394 31.3728 23.5752 34.906 26.9789 37.1591L26.9872 37.1646L26.9955 37.1701C28.4888 38.1651 29.8852 39.1801 31.2102 40.1863L37.2207 44.7512L31.8149 50.0182C26.5575 55.1407 21.2585 60.6127 16.0613 66.3074L15.7115 66.6908C14.117 68.6221 13.3325 71.065 13.5298 73.723M81.088 13.5C85.4838 13.5059 89.845 15.7767 92.3518 19.3383C94.2837 22.0967 94.8826 25.2933 94.2673 28.0564M68.6932 3.76679C72.4323 1.58924 76.7331 0.5 81.0913 0.5H81.0982C89.7089 0.509113 98.0397 4.82894 102.987 11.8618L102.992 11.87C106.886 17.4226 108.417 24.325 106.956 30.8839C105.577 37.069 101.729 42.2565 96.2516 45.4516L96.1441 45.5143L96.0344 45.5728C96.0984 45.5387 96.0345 45.5791 95.8495 45.6964C95.0908 46.1771 92.295 47.9484 87.9259 51.1596C92.7195 58.7696 95.2584 64.3752 95.8842 65.8228C98.5162 71.9048 98.65 78.6444 95.9703 84.6903C93.2887 90.779 88.1931 95.2223 81.8513 97.2799C79.3391 98.1001 76.7041 98.5 74.0436 98.5L74.0256 98.5C64.2953 98.4832 55.1719 93.0424 50.5673 84.5968C48.6631 86.5926 46.7887 88.607 44.9251 90.662L44.9201 90.6675L44.9151 90.673C40.3384 95.6966 33.7477 98.438 26.9099 98.438L26.9005 98.438C20.5912 98.4289 14.4843 96.1616 9.64694 92.0844C4.45603 87.7082 1.07044 81.4252 0.566133 74.6943L0.565923 74.6915C0.0941046 68.3573 2.16498 62.2183 6.45475 57.5306L10.2304 53.4048L10.2665 53.4291C12.6001 50.9416 14.9478 48.5014 17.2982 46.1189C12.1866 41.7871 8.82262 35.6079 8.31803 28.9231C7.9174 23.6645 9.27461 18.5298 12.3109 14.2032C16.7739 7.79662 24.239 4.20209 32.0787 4.20209H32.09C37.3256 4.21122 42.4237 5.76787 46.8064 8.67759C49.2497 10.2891 51.6288 11.9847 53.9876 13.7908C62.5197 7.40657 67.8471 4.25934 68.6916 3.76768M94.2673 28.0564C93.6917 30.6376 92.1151 32.8143 89.7011 34.2226ZM89.7011 34.2226L89.7024 34.2248ZM89.7024 34.2248C88.4994 34.9339 83.1468 38.2973 75.1513 44.5301L70.3125 48.302L73.799 53.3503C80.2466 62.6861 83.4469 69.8138 83.9522 70.9831L83.9534 70.9859C85.2418 73.9631 85.1982 76.9152 84.0835 79.4269L84.0792 79.4366L84.0749 79.4463C82.9574 81.9867 80.8286 83.9454 77.8365 84.9153L77.8288 84.9178L77.821 84.9204C76.674 85.2954 75.4043 85.5 74.0439 85.5M53.5369 63.138L57.7876 70.3565C60.1611 74.3871 61.3893 77.137 61.315 76.9874L61.3953 77.1492L61.4666 77.3152C63.5294 82.1216 68.6058 85.4888 74.0439 85.5M53.5369 63.138L47.6005 69.0484ZM47.6005 69.0484C43.3468 73.2835 39.3023 77.5107 35.301 81.9227ZM35.301 81.9227C33.3398 84.0725 30.3209 85.4369 26.9142 85.438C23.7147 85.4322 20.5591 84.2798 18.0257 82.1447C15.3328 79.8745 13.7575 76.7515 13.53 73.7258" fill="black"/>
</svg>
