<svg width="117" height="101" viewBox="0 0 117 101" fill="none" xmlns="http://www.w3.org/2000/svg">
<path d="M29.5268 60C44.2049 60 80.333 55.9024 98.7691 17.9246L98.7711 17.9205C101.816 11.6393 99.0075 4.13441 92.5072 1.19497C90.7619 0.40241 88.9014 0 86.9833 0C81.9488 0 77.3171 2.84138 75.1833 7.24134C64.1417 29.9826 44.4454 34.7564 29.866 34.7564C22.1589 34.7564 16.6042 33.3756 16.3801 33.3163C15.2824 33.0385 14.1558 32.8955 13.0313 32.8955C7.16209 32.8955 1.99183 36.7174 0.454116 42.1918C-0.450421 45.4377 0.0059824 48.8285 1.73694 51.7394C3.472 54.6543 6.27605 56.7399 9.63311 57.6162C13.7981 58.7029 20.6315 60 29.5268 60Z" fill="#FEDF00"/>
<path d="M46.5268 101C61.2049 101 97.333 96.9024 115.769 58.9246L115.771 58.9205C118.816 52.6393 116.008 45.1344 109.507 42.195C107.762 41.4024 105.901 41 103.983 41C98.9488 41 94.3171 43.8414 92.1833 48.2413C81.1417 70.9826 61.4454 75.7564 46.866 75.7564C39.1589 75.7564 33.6042 74.3756 33.3801 74.3163C32.2824 74.0385 31.1558 73.8955 30.0313 73.8955C24.1621 73.8955 18.9918 77.7174 17.4541 83.1918C16.5496 86.4377 17.006 89.8285 18.7369 92.7394C20.472 95.6543 23.276 97.7399 26.6331 98.6162C30.7981 99.7029 37.6315 101 46.5268 101Z" fill="#FEDF00"/>
</svg>
