<svg width="94" height="85" viewBox="0 0 94 85" fill="none" xmlns="http://www.w3.org/2000/svg">
<rect width="94" height="85" fill="#F5F5F5"/>
<path id="Reset" d="M20.2789 38.3627C14.9291 43.5752 9.54174 49.1386 4.26025 54.9257L4.24999 54.9188C1.19589 58.2562 -0.293603 62.6223 0.0480199 67.2086C0.413556 72.0874 2.89374 76.7907 6.83606 80.1143C10.5222 83.2212 15.1546 84.9312 19.91 84.938C25.0343 84.938 29.8409 82.884 33.1102 79.2955C37.0355 74.9672 41.0052 70.8178 45.1866 66.6547C47.4072 70.4256 48.4867 72.865 48.4935 72.8788C51.5989 80.1144 59.0497 84.9862 67.0368 85H67.0437C69.0558 85 71.0099 84.6972 72.841 84.0986C77.511 82.5847 81.1254 79.3815 83.0248 75.0635C84.9242 70.7834 84.8798 65.9356 82.9189 61.4044C82.2869 59.9421 78.8911 52.4209 72.1475 42.6565C80.6881 35.999 85.9183 32.8681 85.9764 32.8371C89.9221 30.5353 92.6346 26.8539 93.6117 22.4706C94.6502 17.8086 93.5844 12.7577 90.6703 8.6015C86.9432 3.30297 80.5959 0.0068812 74.0914 0C70.805 0 67.645 0.822321 64.9632 2.38435C64.2185 2.81787 57.5534 6.74015 46.905 15.032C43.3658 12.1075 39.8607 9.49949 36.219 7.09796C32.8848 4.88221 29.0279 3.70897 25.0787 3.70209C19.1857 3.70209 13.7881 6.39952 10.6383 10.9273C8.4861 13.9895 7.50908 17.6262 7.79946 21.4315C8.21966 27.0087 11.4377 32.3004 16.3912 35.5792C17.7441 36.4807 19.0286 37.4131 20.2789 38.3627Z" fill="#FEDF00"/>
</svg>
