<svg width="525" height="200" viewBox="0 0 525 200" fill="none" xmlns="http://www.w3.org/2000/svg">
<path d="M110.333 166.495C176.354 194.799 346.805 245.919 503.418 109.583L503.435 109.568C529.317 87.0099 531.248 47.6282 507.714 21.7898C501.402 14.8371 493.814 9.42826 485.187 5.72974C462.542 -3.97841 436.196 -0.0495314 418.061 15.7498C324.271 97.3851 226.417 81.0107 160.84 52.8971C126.174 38.0356 103.869 21.0748 102.976 20.3746C98.5773 17.0004 93.7876 14.1809 88.7297 12.0125C62.3305 0.694909 31.6595 8.02281 14.1208 29.8347C3.75432 42.7811 -0.772257 59.0082 1.36542 75.5204C3.51366 92.059 12.0792 106.905 25.4786 117.345C42.1037 130.295 70.3228 149.342 110.333 166.495Z" fill="#1F1F1F"/>
</svg>
